<svg id="Capa_1" data-name="Capa 1" xmlns="http://www.w3.org/2000/svg" viewBox="0 0 306 270.73"><path d="M394.82,245.2,286.47,141.5c-19.12-18.31-51.38-19.43-72.07-2.51-1,.81-1.93,1.65-2.83,2.51L103.41,245.17A21.33,21.33,0,0,0,96,261.08V363.87c0,18.7,17.13,33.86,38.25,33.86h51V330c.24-30.78,28.31-55.92,62.2-56.64,35-.75,65,24.81,65.3,56.64v67.72h51c21.12,0,38.25-15.16,38.25-33.86V260.92A21.31,21.31,0,0,0,394.82,245.2Z" transform="translate(-96 -127)"/><path d="M249,296.14c-21.12,0-38.25,15.16-38.25,33.87v67.72h76.5V330C287.25,311.3,270.12,296.14,249,296.14Z" transform="translate(-96 -127)"/></svg>